<svg width="180" height="70" viewBox="0 0 212 80" fill="none" xmlns="http://www.w3.org/2000/svg">
<path d="M63.3107 48.3161V18.3268C63.3107 15.5664 61.0729 13.3286 58.3125 13.3286H21.6589C18.8985 13.3286 16.6607 15.5664 16.6607 18.3268V61.6447C16.6607 64.4051 18.8985 66.6429 21.6589 66.6429H44.9839C47.7443 66.6429 49.9821 64.4051 49.9821 61.6447C49.9821 57.0439 53.7117 53.3143 58.3125 53.3143C61.0729 53.3143 63.3107 51.0765 63.3107 48.3161ZM61.6494 55.9512C60.6277 56.3984 59.4991 56.6465 58.3125 56.6465C55.552 56.6465 53.3143 58.8842 53.3143 61.6447C53.3143 62.8313 53.0662 63.9599 52.619 64.9816C56.6043 63.1528 59.8206 59.9365 61.6494 55.9512ZM13.3286 18.3268C13.3286 13.7261 17.0582 9.99646 21.6589 9.99646H58.3125C62.9132 9.99646 66.6428 13.7261 66.6428 18.3268V48.3161C66.6428 60.278 56.9458 69.975 44.9839 69.975H21.6589C17.0582 69.975 13.3286 66.2454 13.3286 61.6447V18.3268ZM28.3232 29.9893C27.403 29.9893 26.6571 29.2434 26.6571 28.3232C26.6571 27.4031 27.403 26.6572 28.3232 26.6572H51.6482C52.5683 26.6572 53.3143 27.4031 53.3143 28.3232C53.3143 29.2434 52.5683 29.9893 51.6482 29.9893H28.3232ZM28.3232 39.9857C27.403 39.9857 26.6571 39.2398 26.6571 38.3197C26.6571 37.3995 27.403 36.6536 28.3232 36.6536H51.6482C52.5683 36.6536 53.3143 37.3995 53.3143 38.3197C53.3143 39.2398 52.5683 39.9857 51.6482 39.9857H28.3232ZM28.3232 49.9822C27.403 49.9822 26.6571 49.2362 26.6571 48.3161C26.6571 47.396 27.403 46.65 28.3232 46.65H44.9839C45.9041 46.65 46.65 47.396 46.65 48.3161C46.65 49.2362 45.9041 49.9822 44.9839 49.9822H28.3232Z" fill="white"/>
<path d="M110.539 25.875V60H104.656L89.3516 35.5547V60H83.4688V25.875H89.3516L104.703 50.3672V25.875H110.539ZM115.906 47.6016V47.0625C115.906 45.2344 116.172 43.5391 116.703 41.9766C117.234 40.3984 118 39.0312 119 37.875C120.016 36.7031 121.25 35.7969 122.703 35.1562C124.172 34.5 125.828 34.1719 127.672 34.1719C129.531 34.1719 131.188 34.5 132.641 35.1562C134.109 35.7969 135.352 36.7031 136.367 37.875C137.383 39.0312 138.156 40.3984 138.688 41.9766C139.219 43.5391 139.484 45.2344 139.484 47.0625V47.6016C139.484 49.4297 139.219 51.125 138.688 52.6875C138.156 54.25 137.383 55.6172 136.367 56.7891C135.352 57.9453 134.117 58.8516 132.664 59.5078C131.211 60.1484 129.562 60.4688 127.719 60.4688C125.859 60.4688 124.195 60.1484 122.727 59.5078C121.273 58.8516 120.039 57.9453 119.023 56.7891C118.008 55.6172 117.234 54.25 116.703 52.6875C116.172 51.125 115.906 49.4297 115.906 47.6016ZM121.555 47.0625V47.6016C121.555 48.7422 121.672 49.8203 121.906 50.8359C122.141 51.8516 122.508 52.7422 123.008 53.5078C123.508 54.2734 124.148 54.875 124.93 55.3125C125.711 55.75 126.641 55.9688 127.719 55.9688C128.766 55.9688 129.672 55.75 130.438 55.3125C131.219 54.875 131.859 54.2734 132.359 53.5078C132.859 52.7422 133.227 51.8516 133.461 50.8359C133.711 49.8203 133.836 48.7422 133.836 47.6016V47.0625C133.836 45.9375 133.711 44.875 133.461 43.875C133.227 42.8594 132.852 41.9609 132.336 41.1797C131.836 40.3984 131.195 39.7891 130.414 39.3516C129.648 38.8984 128.734 38.6719 127.672 38.6719C126.609 38.6719 125.688 38.8984 124.906 39.3516C124.141 39.7891 123.508 40.3984 123.008 41.1797C122.508 41.9609 122.141 42.8594 121.906 43.875C121.672 44.875 121.555 45.9375 121.555 47.0625ZM155.844 34.6406V38.7656H141.547V34.6406H155.844ZM145.672 28.4297H151.32V52.9922C151.32 53.7734 151.43 54.375 151.648 54.7969C151.883 55.2031 152.203 55.4766 152.609 55.6172C153.016 55.7578 153.492 55.8281 154.039 55.8281C154.43 55.8281 154.805 55.8047 155.164 55.7578C155.523 55.7109 155.812 55.6641 156.031 55.6172L156.055 59.9297C155.586 60.0703 155.039 60.1953 154.414 60.3047C153.805 60.4141 153.102 60.4688 152.305 60.4688C151.008 60.4688 149.859 60.2422 148.859 59.7891C147.859 59.3203 147.078 58.5625 146.516 57.5156C145.953 56.4688 145.672 55.0781 145.672 53.3438V28.4297ZM171.383 60.4688C169.508 60.4688 167.812 60.1641 166.297 59.5547C164.797 58.9297 163.516 58.0625 162.453 56.9531C161.406 55.8438 160.602 54.5391 160.039 53.0391C159.477 51.5391 159.195 49.9219 159.195 48.1875V47.25C159.195 45.2656 159.484 43.4688 160.062 41.8594C160.641 40.25 161.445 38.875 162.477 37.7344C163.508 36.5781 164.727 35.6953 166.133 35.0859C167.539 34.4766 169.062 34.1719 170.703 34.1719C172.516 34.1719 174.102 34.4766 175.461 35.0859C176.82 35.6953 177.945 36.5547 178.836 37.6641C179.742 38.7578 180.414 40.0625 180.852 41.5781C181.305 43.0938 181.531 44.7656 181.531 46.5938V49.0078H161.938V44.9531H175.953V44.5078C175.922 43.4922 175.719 42.5391 175.344 41.6484C174.984 40.7578 174.43 40.0391 173.68 39.4922C172.93 38.9453 171.93 38.6719 170.68 38.6719C169.742 38.6719 168.906 38.875 168.172 39.2812C167.453 39.6719 166.852 40.2422 166.367 40.9922C165.883 41.7422 165.508 42.6484 165.242 43.7109C164.992 44.7578 164.867 45.9375 164.867 47.25V48.1875C164.867 49.2969 165.016 50.3281 165.312 51.2812C165.625 52.2188 166.078 53.0391 166.672 53.7422C167.266 54.4453 167.984 55 168.828 55.4062C169.672 55.7969 170.633 55.9922 171.711 55.9922C173.07 55.9922 174.281 55.7188 175.344 55.1719C176.406 54.625 177.328 53.8516 178.109 52.8516L181.086 55.7344C180.539 56.5312 179.828 57.2969 178.953 58.0312C178.078 58.75 177.008 59.3359 175.742 59.7891C174.492 60.2422 173.039 60.4688 171.383 60.4688ZM200.164 53.1328C200.164 52.5703 200.023 52.0625 199.742 51.6094C199.461 51.1406 198.922 50.7188 198.125 50.3438C197.344 49.9688 196.188 49.625 194.656 49.3125C193.312 49.0156 192.078 48.6641 190.953 48.2578C189.844 47.8359 188.891 47.3281 188.094 46.7344C187.297 46.1406 186.68 45.4375 186.242 44.625C185.805 43.8125 185.586 42.875 185.586 41.8125C185.586 40.7812 185.812 39.8047 186.266 38.8828C186.719 37.9609 187.367 37.1484 188.211 36.4453C189.055 35.7422 190.078 35.1875 191.281 34.7812C192.5 34.375 193.859 34.1719 195.359 34.1719C197.484 34.1719 199.305 34.5312 200.82 35.25C202.352 35.9531 203.523 36.9141 204.336 38.1328C205.148 39.3359 205.555 40.6953 205.555 42.2109H199.906C199.906 41.5391 199.734 40.9141 199.391 40.3359C199.062 39.7422 198.562 39.2656 197.891 38.9062C197.219 38.5312 196.375 38.3438 195.359 38.3438C194.391 38.3438 193.586 38.5 192.945 38.8125C192.32 39.1094 191.852 39.5 191.539 39.9844C191.242 40.4688 191.094 41 191.094 41.5781C191.094 42 191.172 42.3828 191.328 42.7266C191.5 43.0547 191.781 43.3594 192.172 43.6406C192.562 43.9062 193.094 44.1562 193.766 44.3906C194.453 44.625 195.312 44.8516 196.344 45.0703C198.281 45.4766 199.945 46 201.336 46.6406C202.742 47.2656 203.82 48.0781 204.57 49.0781C205.32 50.0625 205.695 51.3125 205.695 52.8281C205.695 53.9531 205.453 54.9844 204.969 55.9219C204.5 56.8438 203.812 57.6484 202.906 58.3359C202 59.0078 200.914 59.5312 199.648 59.9062C198.398 60.2812 196.992 60.4688 195.43 60.4688C193.133 60.4688 191.188 60.0625 189.594 59.25C188 58.4219 186.789 57.3672 185.961 56.0859C185.148 54.7891 184.742 53.4453 184.742 52.0547H190.203C190.266 53.1016 190.555 53.9375 191.07 54.5625C191.602 55.1719 192.258 55.6172 193.039 55.8984C193.836 56.1641 194.656 56.2969 195.5 56.2969C196.516 56.2969 197.367 56.1641 198.055 55.8984C198.742 55.6172 199.266 55.2422 199.625 54.7734C199.984 54.2891 200.164 53.7422 200.164 53.1328Z" fill="white"/>
</svg>
