<svg width="100" height="70" viewBox="0 0 99 90" fill="none" xmlns="http://www.w3.org/2000/svg">
<path d="M73.6699 33.5566H25.3301C23.2031 33.5566 21.4629 31.9746 21.4629 30.041C21.4629 28.1074 23.2031 26.5254 25.3301 26.5254H73.6699C75.7969 26.5254 77.5371 28.1074 77.5371 30.041C77.5371 31.9746 75.7969 33.5566 73.6699 33.5566Z" fill="white"/>
<path d="M73.6699 63.4746H25.3301C23.2031 63.4746 21.4629 61.8926 21.4629 59.959C21.4629 58.0254 23.2031 56.4434 25.3301 56.4434H73.6699C75.7969 56.4434 77.5371 58.0254 77.5371 59.959C77.5371 61.8926 75.7969 63.4746 73.6699 63.4746Z" fill="white"/>
<path d="M73.6699 48.5156H25.3301C23.2031 48.5156 21.4629 46.9336 21.4629 45C21.4629 43.0664 23.2031 41.4844 25.3301 41.4844H73.6699C75.7969 41.4844 77.5371 43.0664 77.5371 45C77.5371 46.9336 75.7969 48.5156 73.6699 48.5156Z" fill="white"/>
</svg>
