<svg width="50" height="50" viewBox="5 5 45 45" fill="none" xmlns="http://www.w3.org/2000/svg">
<path d="M31.3542 37.3958H23.625V30.7708H31.3542C32.2327 30.7708 33.0752 31.1198 33.6965 31.741C34.3177 32.3623 34.6667 33.2048 34.6667 34.0833C34.6667 34.9619 34.3177 35.8044 33.6965 36.4256C33.0752 37.0468 32.2327 37.3958 31.3542 37.3958ZM23.625 17.5208H30.25C31.1285 17.5208 31.9711 17.8698 32.5923 18.491C33.2135 19.1123 33.5625 19.9548 33.5625 20.8333C33.5625 21.7119 33.2135 22.5544 32.5923 23.1756C31.9711 23.7968 31.1285 24.1458 30.25 24.1458H23.625V17.5208ZM35.9917 26.9946C38.1338 25.4929 39.6354 23.0417 39.6354 20.8333C39.6354 15.8425 35.7708 12 30.8021 12H17V42.9167H32.5467C37.1842 42.9167 40.7396 39.1625 40.7396 34.5471C40.7396 31.1904 38.8404 28.3196 35.9917 26.9946Z" fill="black"/>
</svg>
