<svg width="50" height="50" viewBox="0 0 53 53" fill="none" xmlns="http://www.w3.org/2000/svg">
<path d="M4.41614 27.415V38.6459C4.41614 41.6949 6.88788 44.1667 9.93697 44.1667H43.0621C46.1111 44.1667 48.5829 41.6949 48.5829 38.6459V14.3542C48.5829 11.3051 46.1111 8.83337 43.0621 8.83337H23.3112L26.6237 12.1459H43.0621C44.2815 12.1459 45.2704 13.1346 45.2704 14.3542V38.6459C45.2704 39.8655 44.2815 40.8542 43.0621 40.8542H9.93697C8.71733 40.8542 7.72864 39.8655 7.72864 38.6459V30.7274L4.41614 27.415Z" fill="#212121"/>
<path d="M13.2495 3.86462C13.2495 2.94991 13.991 2.20837 14.9057 2.20837C15.8204 2.20837 16.562 2.94991 16.562 3.86462V6.65883C17.5572 6.74771 18.528 7.17306 19.2897 7.93483L27.0974 15.7425C28.8223 17.4673 28.8223 20.2638 27.0974 21.9886L17.7282 31.3577C16.0034 33.0826 13.2069 33.0826 11.4821 31.3577L3.67447 23.5501C1.94966 21.8253 1.94966 19.0288 3.67447 17.304L13.0436 7.93483C13.1107 7.8678 13.1793 7.80336 13.2495 7.74155V3.86462ZM13.2495 13.8021V12.4136L6.86854 18.7945H25.0763C25.0597 18.536 24.9526 18.2823 24.7552 18.0847L16.9475 10.2771C16.8342 10.1639 16.7025 10.0804 16.562 10.0266V13.8021C16.562 14.7168 15.8204 15.4584 14.9057 15.4584C13.991 15.4584 13.2495 14.7168 13.2495 13.8021ZM6.91597 22.107L13.8244 29.0156C14.2556 29.4466 14.9547 29.4466 15.3859 29.0156L22.2944 22.107H6.91597Z" fill="#212121"/>
<path d="M24.2912 29.5364C24.2912 28.4468 24.6315 27.3893 25.046 26.4863C25.4669 25.5689 26.0133 24.707 26.5342 23.9813C27.0585 23.2513 27.579 22.6287 27.9674 22.1895C28.156 21.9761 28.5005 21.6124 28.6286 21.4771L28.6408 21.4642C29.2876 20.8174 30.3363 20.8174 30.9831 21.4642L31.6567 22.1895C32.0449 22.6287 32.5656 23.2513 33.0897 23.9813C33.6106 24.707 34.157 25.5689 34.5779 26.4863C34.9924 27.3893 35.3329 28.4468 35.3329 29.5364C35.3329 32.6069 33.0607 35.3333 29.8121 35.3333C26.5632 35.3333 24.2912 32.6069 24.2912 29.5364ZM29.2251 25.9132C28.7799 26.5331 28.3601 27.2066 28.0564 27.868C27.7464 28.5433 27.6037 29.1076 27.6037 29.5364C27.6037 31.063 28.6657 32.0208 29.8121 32.0208C30.9582 32.0208 32.0204 31.063 32.0204 29.5364C32.0204 29.1076 31.8775 28.5433 31.5675 27.868C31.2638 27.2066 30.844 26.5331 30.3988 25.9132C30.2005 25.6369 30.0015 25.3772 29.8121 25.1405C29.6224 25.3772 29.4234 25.6369 29.2251 25.9132Z" fill="#212121"/>
</svg>
