<svg width="172" height="39" viewBox="0 0 172 39" fill="none" xmlns="http://www.w3.org/2000/svg">
<g opacity="0.2">
<path opacity="0.2" d="M12.5 32.9062H7.5C7.16848 32.9062 6.85054 32.7778 6.61612 32.5493C6.3817 32.3207 6.25 32.0107 6.25 31.6875V7.3125C6.25 6.98927 6.3817 6.67927 6.61612 6.45071C6.85054 6.22215 7.16848 6.09375 7.5 6.09375H12.5V32.9062Z" fill="white"/>
</g>
<path d="M27.5 15.8438H17.5C17.1685 15.8438 16.8505 15.9722 16.6161 16.2007C16.3817 16.4293 16.25 16.7393 16.25 17.0625C16.25 17.3857 16.3817 17.6957 16.6161 17.9243C16.8505 18.1528 17.1685 18.2812 17.5 18.2812H27.5C27.8315 18.2812 28.1495 18.1528 28.3839 17.9243C28.6183 17.6957 28.75 17.3857 28.75 17.0625C28.75 16.7393 28.6183 16.4293 28.3839 16.2007C28.1495 15.9722 27.8315 15.8438 27.5 15.8438Z" fill="white"/>
<path d="M27.5 20.7188H17.5C17.1685 20.7188 16.8505 20.8472 16.6161 21.0757C16.3817 21.3043 16.25 21.6143 16.25 21.9375C16.25 22.2607 16.3817 22.5707 16.6161 22.7993C16.8505 23.0278 17.1685 23.1562 17.5 23.1562H27.5C27.8315 23.1562 28.1495 23.0278 28.3839 22.7993C28.6183 22.5707 28.75 22.2607 28.75 21.9375C28.75 21.6143 28.6183 21.3043 28.3839 21.0757C28.1495 20.8472 27.8315 20.7188 27.5 20.7188Z" fill="white"/>
<path d="M32.5 4.875H7.5C6.83719 4.87574 6.20175 5.13278 5.73307 5.58974C5.26439 6.0467 5.00076 6.66626 5 7.3125V31.6875C5.00076 32.3337 5.26439 32.9533 5.73307 33.4103C6.20175 33.8672 6.83719 34.1243 7.5 34.125H32.5C33.1628 34.1243 33.7983 33.8672 34.2669 33.4103C34.7356 32.9533 34.9992 32.3337 35 31.6875V7.3125C34.9992 6.66626 34.7356 6.0467 34.2669 5.58974C33.7983 5.13278 33.1628 4.87574 32.5 4.875ZM11.25 31.6875H7.5V7.3125H11.25V31.6875ZM32.5 31.6875H13.75V7.3125H32.5L32.5016 31.6874L32.5 31.6875Z" fill="white"/>
<path d="M62.9043 7.40625V33H58.4922L47.0137 14.666V33H42.6016V7.40625H47.0137L58.5273 25.7754V7.40625H62.9043ZM66.9297 23.7012V23.2969C66.9297 21.9258 67.1289 20.6543 67.5273 19.4824C67.9258 18.2988 68.5 17.2734 69.25 16.4062C70.0117 15.5273 70.9375 14.8477 72.0273 14.3672C73.1289 13.875 74.3711 13.6289 75.7539 13.6289C77.1484 13.6289 78.3906 13.875 79.4805 14.3672C80.582 14.8477 81.5137 15.5273 82.2754 16.4062C83.0371 17.2734 83.6172 18.2988 84.0156 19.4824C84.4141 20.6543 84.6133 21.9258 84.6133 23.2969V23.7012C84.6133 25.0723 84.4141 26.3438 84.0156 27.5156C83.6172 28.6875 83.0371 29.7129 82.2754 30.5918C81.5137 31.459 80.5879 32.1387 79.498 32.6309C78.4082 33.1113 77.1719 33.3516 75.7891 33.3516C74.3945 33.3516 73.1465 33.1113 72.0449 32.6309C70.9551 32.1387 70.0293 31.459 69.2676 30.5918C68.5059 29.7129 67.9258 28.6875 67.5273 27.5156C67.1289 26.3438 66.9297 25.0723 66.9297 23.7012ZM71.166 23.2969V23.7012C71.166 24.5566 71.2539 25.3652 71.4297 26.127C71.6055 26.8887 71.8809 27.5566 72.2559 28.1309C72.6309 28.7051 73.1113 29.1562 73.6973 29.4844C74.2832 29.8125 74.9805 29.9766 75.7891 29.9766C76.5742 29.9766 77.2539 29.8125 77.8281 29.4844C78.4141 29.1562 78.8945 28.7051 79.2695 28.1309C79.6445 27.5566 79.9199 26.8887 80.0957 26.127C80.2832 25.3652 80.377 24.5566 80.377 23.7012V23.2969C80.377 22.4531 80.2832 21.6562 80.0957 20.9062C79.9199 20.1445 79.6387 19.4707 79.252 18.8848C78.877 18.2988 78.3965 17.8418 77.8105 17.5137C77.2363 17.1738 76.5508 17.0039 75.7539 17.0039C74.957 17.0039 74.2656 17.1738 73.6797 17.5137C73.1055 17.8418 72.6309 18.2988 72.2559 18.8848C71.8809 19.4707 71.6055 20.1445 71.4297 20.9062C71.2539 21.6562 71.166 22.4531 71.166 23.2969ZM96.8828 13.9805V17.0742H86.1602V13.9805H96.8828ZM89.2539 9.32227H93.4902V27.7441C93.4902 28.3301 93.5723 28.7812 93.7363 29.0977C93.9121 29.4023 94.1523 29.6074 94.457 29.7129C94.7617 29.8184 95.1191 29.8711 95.5293 29.8711C95.8223 29.8711 96.1035 29.8535 96.373 29.8184C96.6426 29.7832 96.8594 29.748 97.0234 29.7129L97.041 32.9473C96.6895 33.0527 96.2793 33.1465 95.8105 33.2285C95.3535 33.3105 94.8262 33.3516 94.2285 33.3516C93.2559 33.3516 92.3945 33.1816 91.6445 32.8418C90.8945 32.4902 90.3086 31.9219 89.8867 31.1367C89.4648 30.3516 89.2539 29.3086 89.2539 28.0078V9.32227ZM108.537 33.3516C107.131 33.3516 105.859 33.123 104.723 32.666C103.598 32.1973 102.637 31.5469 101.84 30.7148C101.055 29.8828 100.451 28.9043 100.029 27.7793C99.6074 26.6543 99.3965 25.4414 99.3965 24.1406V23.4375C99.3965 21.9492 99.6133 20.6016 100.047 19.3945C100.48 18.1875 101.084 17.1562 101.857 16.3008C102.631 15.4336 103.545 14.7715 104.6 14.3145C105.654 13.8574 106.797 13.6289 108.027 13.6289C109.387 13.6289 110.576 13.8574 111.596 14.3145C112.615 14.7715 113.459 15.416 114.127 16.248C114.807 17.0684 115.311 18.0469 115.639 19.1836C115.979 20.3203 116.148 21.5742 116.148 22.9453V24.7559H101.453V21.7148H111.965V21.3809C111.941 20.6191 111.789 19.9043 111.508 19.2363C111.238 18.5684 110.822 18.0293 110.26 17.6191C109.697 17.209 108.947 17.0039 108.01 17.0039C107.307 17.0039 106.68 17.1562 106.129 17.4609C105.59 17.7539 105.139 18.1816 104.775 18.7441C104.412 19.3066 104.131 19.9863 103.932 20.7832C103.744 21.5684 103.65 22.4531 103.65 23.4375V24.1406C103.65 24.9727 103.762 25.7461 103.984 26.4609C104.219 27.1641 104.559 27.7793 105.004 28.3066C105.449 28.834 105.988 29.25 106.621 29.5547C107.254 29.8477 107.975 29.9941 108.783 29.9941C109.803 29.9941 110.711 29.7891 111.508 29.3789C112.305 28.9688 112.996 28.3887 113.582 27.6387L115.814 29.8008C115.404 30.3984 114.871 30.9727 114.215 31.5234C113.559 32.0625 112.756 32.502 111.807 32.8418C110.869 33.1816 109.779 33.3516 108.537 33.3516ZM130.123 27.8496C130.123 27.4277 130.018 27.0469 129.807 26.707C129.596 26.3555 129.191 26.0391 128.594 25.7578C128.008 25.4766 127.141 25.2188 125.992 24.9844C124.984 24.7617 124.059 24.498 123.215 24.1934C122.383 23.877 121.668 23.4961 121.07 23.0508C120.473 22.6055 120.01 22.0781 119.682 21.4688C119.354 20.8594 119.189 20.1562 119.189 19.3594C119.189 18.5859 119.359 17.8535 119.699 17.1621C120.039 16.4707 120.525 15.8613 121.158 15.334C121.791 14.8066 122.559 14.3906 123.461 14.0859C124.375 13.7813 125.395 13.6289 126.52 13.6289C128.113 13.6289 129.479 13.8984 130.615 14.4375C131.764 14.9648 132.643 15.6855 133.252 16.5996C133.861 17.502 134.166 18.5215 134.166 19.6582H129.93C129.93 19.1543 129.801 18.6855 129.543 18.252C129.297 17.8066 128.922 17.4492 128.418 17.1797C127.914 16.8984 127.281 16.7578 126.52 16.7578C125.793 16.7578 125.189 16.875 124.709 17.1094C124.24 17.332 123.889 17.625 123.654 17.9883C123.432 18.3516 123.32 18.75 123.32 19.1836C123.32 19.5 123.379 19.7871 123.496 20.0449C123.625 20.291 123.836 20.5195 124.129 20.7305C124.422 20.9297 124.82 21.1172 125.324 21.293C125.84 21.4688 126.484 21.6387 127.258 21.8027C128.711 22.1074 129.959 22.5 131.002 22.9805C132.057 23.4492 132.865 24.0586 133.428 24.8086C133.99 25.5469 134.271 26.4844 134.271 27.6211C134.271 28.4648 134.09 29.2383 133.727 29.9414C133.375 30.6328 132.859 31.2363 132.18 31.752C131.5 32.2559 130.686 32.6484 129.736 32.9297C128.799 33.2109 127.744 33.3516 126.572 33.3516C124.85 33.3516 123.391 33.0469 122.195 32.4375C121 31.8164 120.092 31.0254 119.471 30.0645C118.861 29.0918 118.557 28.084 118.557 27.041H122.652C122.699 27.8262 122.916 28.4531 123.303 28.9219C123.701 29.3789 124.193 29.7129 124.779 29.9238C125.377 30.123 125.992 30.2227 126.625 30.2227C127.387 30.2227 128.025 30.123 128.541 29.9238C129.057 29.7129 129.449 29.4316 129.719 29.0801C129.988 28.7168 130.123 28.3066 130.123 27.8496Z" fill="white"/>
</svg>
